# xmcd CD database file generated by Grip 2.94
# 
# Track frame offsets:
#       150
#       16063
#       39251
#       54983
#       68870
#       91821
#       101832
#       113990
#       127500
#       143888
#       163674
#       177160
#       186348
#       197034
# 
# Disc length: 2748 seconds
# 
# Revision: 3
# Processed by: cddbd v1.4b41PL3 Copyright (c) Steve Scherf et al.
# Submitted via: Grip 2.94
# 
DISCID=b30aba0e
DTITLE=Marilyn Monroe - With Love, XOXO
DYEAR=1900
DGENRE=
TTITLE0=Diamonds Are A Girl's Best Friend
TTITLE1=My Heart Belongs To Daddy
TTITLE2=Bye Bye Baby
TTITLE3=A Little Girl From Littlerock
TTITLE4=A Man Chases A Girl
TTITLE5=The River of No Return
TTITLE6=I'm Gonna File My Claim
TTITLE7=I Wanna Be Loved By You
TTITLE8=After You Get What You Want (You Don't Want It)
TTITLE9=Heat Wave
TTITLE10=When I Fall In Love
TTITLE11=One Silver Dollar
TTITLE12=There's No Business Like Show Business
TTITLE13=Happy Birthday, Mr. President
EXTD=
EXTT0=
EXTT1=
EXTT2=
EXTT3=
EXTT4=
EXTT5=
EXTT6=
EXTT7=
EXTT8=
EXTT9=
EXTT10=
EXTT11=
EXTT12=
EXTT13=
PLAYORDER=
